<?xml version="1.0" standalone="no"?>
<!DOCTYPE svg PUBLIC "-//W3C//DTD SVG 20010904//EN"
 "http://www.w3.org/TR/2001/REC-SVG-20010904/DTD/svg10.dtd">
<svg version="1.0" xmlns="http://www.w3.org/2000/svg"
 width="256.000000pt" height="256.000000pt" viewBox="0 0 256.000000 256.000000"
 preserveAspectRatio="xMidYMid meet">
<metadata>
Created by potrace 1.11, written by Peter Selinger 2001-2013
</metadata>
<g transform="translate(0.000000,256.000000) scale(0.100000,-0.100000)"
fill="#000000" stroke="none">
<path d="M1445 2530 c-38 -10 -86 -25 -106 -34 -62 -26 -158 -106 -207 -172
-26 -35 -51 -64 -56 -64 -5 0 -22 15 -36 32 -24 28 -30 31 -44 19 -11 -10 -16
-30 -16 -72 0 -51 -5 -65 -34 -106 -41 -58 -76 -157 -76 -215 0 -54 20 -128
51 -192 18 -36 21 -50 11 -53 -6 -3 -10 -8 -7 -13 3 -4 -11 -11 -30 -14 -43
-8 -92 -71 -73 -93 16 -20 17 -160 1 -207 -7 -22 -16 -53 -19 -70 -3 -17 -8
-33 -12 -36 -4 -3 -13 -16 -20 -30 -21 -39 -45 -64 -75 -78 -32 -14 -22 -29
-91 142 -38 94 -43 121 -26 131 6 4 8 10 5 15 -3 4 1 10 8 13 19 7 14 62 -7
86 -10 11 -23 18 -27 15 -5 -3 -9 2 -9 11 0 9 -4 13 -10 10 -22 -14 0 79 23
96 4 3 9 16 10 27 1 12 6 22 11 22 5 0 7 3 3 6 -3 4 1 20 9 36 10 20 11 28 3
23 -8 -6 -10 -4 -3 6 8 14 13 29 16 61 1 9 6 14 10 12 4 -3 8 2 8 10 0 15 12
21 33 17 4 -1 3 7 -2 18 -9 16 -8 18 12 15 12 -2 16 -2 10 2 -21 9 -15 23 7
17 12 -3 20 0 20 6 0 7 -5 9 -12 5 -7 -4 -8 -3 -4 4 4 7 13 12 21 12 8 0 17 4
20 10 3 6 -2 7 -12 4 -13 -4 -12 -1 5 12 23 17 29 34 11 34 -5 0 -7 -5 -3 -12
4 -7 3 -8 -5 -4 -9 6 -9 11 1 24 11 14 10 15 -7 9 -17 -6 -18 -5 -4 5 20 16
13 38 -12 38 -10 0 -19 5 -19 11 0 5 6 7 13 3 6 -4 9 -3 4 1 -9 10 -87 13 -87
3 0 -4 -7 -5 -15 -2 -8 4 -15 1 -15 -6 0 -6 -4 -9 -9 -6 -5 3 -11 -1 -15 -9
-3 -8 -12 -15 -20 -15 -8 0 -27 -15 -41 -32 -15 -18 -24 -27 -19 -19 5 10 3
12 -5 7 -7 -5 -10 -15 -6 -23 4 -13 3 -14 -10 -3 -11 9 -15 9 -15 1 0 -7 -5
-9 -10 -6 -6 4 -10 3 -9 -2 3 -20 -2 -25 -16 -13 -12 10 -16 9 -21 -3 -3 -9
-12 -13 -21 -10 -12 5 -14 3 -8 -8 6 -11 5 -11 -5 -2 -15 14 -42 6 -34 -11 3
-6 -1 -3 -9 7 -10 12 -17 14 -22 7 -3 -5 -11 -8 -16 -4 -5 3 -7 9 -4 14 3 5 0
12 -6 16 -8 4 -9 3 -5 -4 4 -7 2 -12 -3 -12 -6 0 -11 7 -11 15 0 9 -6 12 -17
8 -11 -4 -14 -3 -9 5 4 7 1 12 -9 12 -10 0 -13 5 -9 13 6 9 4 9 -8 -1 -14 -11
-18 -10 -28 7 -6 12 -16 20 -23 18 -7 -1 -11 3 -10 10 2 7 -4 10 -12 7 -8 -4
-17 1 -21 9 -3 9 -12 13 -20 10 -8 -3 -14 -2 -13 3 4 21 -2 28 -11 14 -8 -13
-10 -12 -10 4 0 20 0 20 -15 0 -13 -18 -14 -18 -8 5 4 16 2 22 -5 18 -5 -4
-13 -1 -15 5 -3 7 -6 -170 -6 -393 -1 -223 2 -409 6 -413 4 -3 8 -16 10 -28 2
-12 9 -28 16 -37 10 -12 9 -13 -3 -6 -11 6 -12 5 -4 -4 6 -7 32 -15 58 -19
l47 -7 53 -130 c107 -266 207 -511 218 -535 40 -91 69 -183 72 -227 3 -40 -1
-48 -26 -44 -4 0 -5 -5 -2 -13 3 -8 0 -17 -7 -22 -8 -5 -10 -3 -4 7 8 12 6 12
-8 0 -9 -7 -14 -18 -10 -25 4 -6 -1 -4 -11 3 -16 13 -18 13 -16 0 4 -25 0 -39
-11 -39 -5 0 -8 4 -5 8 3 5 -1 9 -9 9 -8 0 -12 -4 -9 -8 2 -4 0 -10 -6 -14 -5
-3 -10 -1 -10 5 0 7 -7 5 -16 -4 -17 -17 -30 -20 -37 -8 -2 4 -2 1 -1 -6 3
-11 -9 -16 -29 -13 -5 1 -6 -3 -2 -9 3 -5 1 -10 -4 -10 -6 0 -10 -5 -9 -12 2
-7 -3 -13 -9 -14 -27 -3 -28 -5 -13 -14 13 -8 13 -10 -2 -10 -11 0 -15 -5 -12
-15 4 -8 2 -15 -4 -15 -5 0 -9 -10 -8 -23 l1 -22 930 -3 c825 -2 927 0 910 13
-75 56 -131 95 -138 95 -4 0 -5 5 -2 10 4 6 3 10 -2 9 -21 -4 -34 2 -27 13 4
6 3 8 -4 4 -6 -3 -17 1 -26 9 -8 9 -18 15 -21 15 -16 -3 -83 35 -78 43 3 6 1
7 -5 3 -14 -9 -51 14 -46 28 4 11 -108 86 -128 86 -23 0 1 25 24 25 21 1 27
-5 32 -27 8 -38 21 -35 49 12 l24 41 7 -63 c4 -35 7 -68 8 -75 2 -18 38 4 38
23 0 31 102 204 121 204 5 0 9 -11 9 -23 0 -13 8 -32 19 -41 22 -20 15 -31 68
119 19 55 49 122 66 149 18 27 31 55 29 62 -1 7 2 15 7 19 6 3 8 12 4 21 -4
12 2 13 35 8 51 -8 125 16 173 56 49 40 104 148 123 244 18 88 21 224 6 342
-5 43 -14 123 -20 177 -28 240 -101 445 -223 627 -96 141 -213 231 -377 288
-98 34 -233 39 -335 12z"/>
<path d="M181 2014 c0 -11 3 -14 6 -6 3 7 2 16 -1 19 -3 4 -6 -2 -5 -13z"/>
</g>
</svg>
